# xmcd
#
# Track frame offsets:
#	150
#	14583
#	29268
#	41508
#	55460
#	68853
#	84245
#	96768
#	110150
#	125565
#	142535
#	158840
#	174515
#	188290
#	201833
#
# Disc length: 2885 seconds
#
# Revision: 1
# Processed by: cddbd v1.5.2PL0 Copyright (c) Steve Scherf et al.
# Submitted via: audiograbber 1.83.01
#
DISCID=c20b430f
DTITLE=Tennessee - Alle mal mitmachen......
DYEAR=1999
DGENRE=Country
TTITLE0=Hallo liebe Hörer
TTITLE1=Junge komm doch wieder
TTITLE2=Ich bin k.o.
TTITLE3=Heirats Angebot
TTITLE4=Wir sind die Jungs
TTITLE5=Nur mit dir
TTITLE6=Halb 8
TTITLE7=Saitensprung
TTITLE8=Ich bin der Hausmann
TTITLE9=Traumfrau
TTITLE10=Deine Sterne lügen nicht
TTITLE11=Wirklich schade
TTITLE12=Tausche UFO gegen 30-Tonner-Diesel
TTITLE13=Express
TTITLE14=Wir sind ne kleine Countryband
EXTD=
EXTT0=
EXTT1=
EXTT2=
EXTT3=
EXTT4=
EXTT5=
EXTT6=
EXTT7=
EXTT8=
EXTT9=
EXTT10=
EXTT11=
EXTT12=
EXTT13=
EXTT14=
PLAYORDER=
